<svg xmlns="http://www.w3.org/2000/svg" version="1.1" xmlns:xlink="http://www.w3.org/1999/xlink" width="1000" height="1000"><style>
    #light-icon {
      display: inline;
    }
    #dark-icon {
      display: none;
    }

    @media (prefers-color-scheme: dark) {
      #light-icon {
        display: none;
      }
      #dark-icon {
        display: inline;
      }
    }
  </style><g id="light-icon"><svg xmlns="http://www.w3.org/2000/svg" version="1.1" xmlns:xlink="http://www.w3.org/1999/xlink" width="1000" height="1000"><g clip-path="url(#SvgjsClipPath1047)"><rect width="1000" height="1000" fill="#030618"></rect><g transform="matrix(0.5,0,0,0.5,108,100)"><svg xmlns="http://www.w3.org/2000/svg" version="1.1" xmlns:xlink="http://www.w3.org/1999/xlink" width="1568" height="1600"><svg xmlns="http://www.w3.org/2000/svg" version="1.1" viewBox="0.00 0.00 1568.00 1600.00">
<g fill="#ffffff">
<path d="
  M 899.50 0.00
  L 898.36 0.39
  A 0.14 0.14 0.0 0 0 898.38 0.66
  Q 914.60 2.95 918.44 18.44
  C 919.47 22.62 919.29 29.69 919.12 34.87
  C 916.02 126.19 915.07 235.18 913.63 313.75
  Q 911.89 408.72 906.80 498.00
  Q 906.62 501.10 906.71 503.99
  C 907.27 522.20 908.03 540.09 908.14 557.50
  Q 908.22 569.85 906.74 599.00
  C 904.22 648.47 899.23 712.76 898.78 764.75
  Q 898.41 806.30 902.76 847.84
  A 0.32 0.32 0.0 0 0 903.33 848.01
  Q 935.15 808.36 971.96 769.69
  Q 1037.42 700.93 1048.22 689.47
  Q 1063.90 672.85 1076.82 658.06
  C 1079.33 655.18 1082.36 652.36 1085.94 651.07
  Q 1094.73 647.90 1102.56 651.41
  Q 1106.63 653.24 1114.45 661.35
  Q 1130.67 678.15 1161.82 710.27
  C 1164.81 713.36 1168.34 716.94 1171.46 719.02
  Q 1174.16 720.81 1181.82 727.17
  C 1188.22 732.48 1192.98 738.23 1195.04 745.88
  C 1198.99 760.57 1206.53 768.99 1206.42 783.09
  A 0.70 0.70 0.0 0 1 1205.66 783.78
  L 1196.84 783.01
  A 0.90 0.86 -52.0 0 0 1196.43 783.07
  Q 1194.85 783.65 1193.82 784.50
  A 2.32 2.28 80.3 0 0 1193.15 785.46
  C 1191.62 789.64 1190.09 793.11 1189.52 797.65
  Q 1187.92 810.40 1185.92 822.46
  Q 1183.31 838.24 1172.64 849.88
  Q 1153.58 870.67 1080.19 951.79
  C 1046.31 989.25 1011.22 1025.19 975.51 1060.57
  C 959.71 1076.22 949.07 1088.90 932.16 1107.91
  Q 906.49 1136.76 881.20 1159.94
  Q 855.23 1183.74 826.54 1206.80
  C 816.76 1214.66 805.59 1222.72 794.28 1224.28
  C 777.09 1226.65 758.72 1215.52 745.59 1204.63
  Q 714.34 1178.75 681.46 1144.04
  Q 665.28 1126.96 642.31 1105.44
  Q 612.12 1077.15 578.39 1046.85
  C 566.81 1036.45 555.97 1025.56 545.41 1015.77
  C 510.98 983.88 473.55 949.16 438.39 914.24
  Q 428.27 904.19 423.75 899.21
  Q 420.92 896.10 410.59 883.73
  Q 384.87 852.92 355.21 827.21
  C 347.64 820.66 339.43 813.08 334.87 804.17
  C 329.26 793.23 332.99 784.14 340.53 775.35
  Q 354.29 759.31 358.32 754.33
  Q 364.23 747.04 369.74 736.27
  C 371.15 733.51 374.92 729.90 377.88 728.04
  Q 391.55 719.42 403.66 716.19
  Q 405.72 715.64 414.81 713.83
  A 3.69 3.65 -70.1 0 0 416.39 713.08
  L 422.17 708.32
  A 4.11 3.29 -14.1 0 0 422.56 707.94
  L 432.30 696.50
  A 0.76 0.76 0.0 0 0 432.47 695.86
  Q 431.35 690.56 432.02 685.87
  A 0.55 0.55 0.0 0 1 432.68 685.41
  Q 446.03 688.35 461.72 690.65
  Q 474.85 692.57 484.79 697.62
  Q 488.05 699.28 493.93 704.80
  C 502.88 713.21 514.20 724.16 525.47 734.35
  Q 587.66 790.61 588.60 791.45
  C 613.06 813.55 633.54 833.33 654.83 855.09
  A 0.39 0.38 23.7 0 0 655.49 854.84
  C 657.59 778.39 658.77 686.20 664.91 602.72
  C 666.27 584.12 669.23 561.70 669.30 544.25
  C 669.36 526.61 668.80 505.21 667.95 487.93
  C 665.69 442.04 663.58 411.62 663.78 372.25
  Q 663.84 362.01 663.25 355.27
  C 661.09 330.19 660.21 304.18 660.67 280.75
  Q 661.53 237.69 661.60 214.75
  Q 661.64 202.00 660.39 187.25
  Q 655.15 125.11 654.82 121.73
  Q 654.50 118.44 653.87 116.16
  C 651.21 106.63 649.07 100.72 650.05 92.82
  Q 650.38 90.14 653.63 84.41
  Q 656.09 80.07 659.29 71.05
  Q 661.79 63.96 667.97 58.25
  A 9.78 9.46 -5.4 0 0 669.41 56.57
  Q 677.29 44.83 691.24 42.98
  A 9.46 9.40 -63.9 0 0 694.83 41.74
  Q 700.32 38.48 704.52 34.43
  A 2.25 2.08 -79.3 0 1 705.03 34.05
  L 709.63 31.52
  A 2.53 2.47 22.4 0 1 710.20 31.29
  Q 716.21 29.64 718.01 28.54
  Q 735.50 17.78 743.95 12.71
  C 753.85 6.76 765.81 1.72 777.50 1.51
  Q 810.44 0.94 866.65 0.65
  A 0.15 0.15 0.0 0 0 866.80 0.50
  L 866.80 0.49
  A 0.14 0.14 0.0 0 0 866.66 0.35
  L 834.44 0.00
  L 899.50 0.00
  Z
  M 480.32 902.65
  L 481.32 903.50
  A 0.19 0.19 0.0 0 0 481.62 903.27
  Q 481.29 902.54 480.55 902.26
  A 0.23 0.23 0.0 0 0 480.32 902.65
  Z"></path>
<path d="
  M 26.39 1212.88
  L 33.44 1223.03
  A 0.62 0.62 0.0 0 0 34.32 1223.18
  Q 54.77 1208.61 74.81 1199.25
  C 93.65 1190.45 114.53 1187.54 135.51 1187.56
  Q 155.26 1187.58 175.24 1187.05
  C 187.10 1186.73 195.44 1193.57 199.23 1204.50
  A 8.86 6.90 62.4 0 1 199.56 1205.69
  Q 200.03 1207.90 200.18 1219.25
  Q 201.71 1329.78 202.40 1382.40
  A 0.79 0.78 9.4 0 0 202.94 1383.14
  L 214.15 1386.76
  A 3.47 3.41 -35.5 0 0 215.22 1386.93
  Q 233.80 1387.17 236.75 1387.16
  Q 295.27 1387.05 443.75 1385.33
  Q 500.29 1384.67 563.85 1386.68
  Q 601.91 1387.88 652.09 1391.30
  Q 730.54 1396.65 740.25 1397.21
  C 783.35 1399.73 828.46 1401.22 866.75 1399.24
  Q 898.56 1397.59 911.75 1397.33
  C 974.40 1396.11 1045.28 1392.92 1145.00 1388.80
  C 1148.57 1388.65 1155.51 1388.41 1160.67 1388.62
  Q 1179.39 1389.36 1202.41 1388.49
  Q 1219.73 1387.83 1244.00 1384.84
  C 1276.47 1380.83 1307.32 1376.94 1338.42 1372.21
  Q 1345.09 1371.20 1351.89 1369.03
  C 1361.80 1365.87 1370.28 1363.35 1380.23 1364.26
  C 1385.35 1364.73 1391.93 1367.23 1395.69 1368.14
  A 2.08 2.07 -58.0 0 0 1397.66 1367.68
  L 1406.22 1359.95
  A 1.33 1.31 -26.5 0 0 1406.64 1358.72
  L 1406.16 1356.15
  A 1.28 1.26 8.0 0 0 1405.49 1355.27
  Q 1398.18 1351.59 1385.08 1345.42
  C 1380.21 1343.12 1373.94 1338.82 1371.94 1333.86
  A 3.23 2.73 -64.2 0 1 1371.75 1333.12
  Q 1366.71 1292.15 1364.00 1247.73
  Q 1363.26 1235.56 1363.37 1233.26
  C 1363.95 1221.85 1367.18 1211.36 1377.67 1205.74
  C 1381.18 1203.86 1388.33 1203.34 1391.56 1203.10
  C 1407.64 1201.87 1426.17 1200.68 1443.26 1199.13
  C 1458.72 1197.72 1474.17 1197.24 1489.28 1198.32
  C 1498.34 1198.96 1502.29 1199.61 1510.65 1199.10
  C 1524.79 1198.25 1543.06 1198.30 1549.06 1214.43
  C 1550.44 1218.14 1551.19 1224.45 1551.39 1228.85
  C 1552.23 1247.48 1550.14 1267.67 1546.88 1286.67
  C 1545.15 1296.78 1545.32 1306.07 1546.37 1315.68
  C 1547.99 1330.53 1552.41 1357.97 1552.78 1378.25
  C 1552.97 1388.51 1552.93 1393.78 1554.39 1403.19
  Q 1556.06 1413.92 1556.73 1420.50
  C 1557.15 1424.63 1557.52 1430.39 1556.79 1435.82
  Q 1555.18 1447.85 1554.99 1450.50
  C 1553.36 1472.50 1557.78 1495.38 1566.09 1515.63
  C 1567.01 1517.89 1565.65 1520.28 1563.81 1522.15
  Q 1560.38 1525.65 1554.22 1532.59
  Q 1552.70 1534.30 1548.29 1536.49
  A 2.94 2.90 34.8 0 1 1546.66 1536.77
  Q 1538.49 1535.74 1531.83 1531.20
  A 0.71 0.71 0.0 0 0 1531.09 1531.17
  C 1517.29 1538.80 1504.08 1548.02 1495.18 1553.42
  Q 1484.26 1560.04 1470.52 1564.88
  C 1467.54 1565.94 1463.58 1566.94 1460.06 1567.38
  Q 1447.60 1568.95 1426.01 1571.03
  C 1334.74 1579.81 1244.10 1585.18 1152.75 1589.18
  C 1118.20 1590.69 1061.76 1592.88 1017.74 1593.80
  Q 938.13 1595.45 864.00 1595.72
  C 775.58 1596.05 680.98 1593.71 594.53 1589.85
  Q 570.99 1588.80 551.51 1587.22
  Q 526.60 1585.19 508.50 1584.07
  C 461.74 1581.18 413.98 1580.84 359.25 1581.81
  Q 304.86 1582.77 247.40 1584.75
  Q 200.88 1586.35 174.09 1586.67
  Q 112.05 1587.42 100.75 1587.22
  Q 64.02 1586.59 35.27 1585.46
  C 10.69 1584.50 9.76 1559.28 11.48 1541.00
  C 14.86 1505.10 16.48 1469.44 15.03 1432.50
  Q 11.21 1335.05 10.57 1318.25
  C 10.29 1310.80 9.71 1303.51 8.11 1294.84
  C 5.70 1281.72 3.92 1267.26 9.40 1254.71
  C 12.93 1246.62 14.16 1238.20 16.92 1229.19
  Q 19.87 1219.55 25.38 1212.84
  A 0.63 0.63 0.0 0 1 26.39 1212.88
  Z
  M 1410.95 1243.40
  L 1410.31 1243.45
  A 0.17 0.17 0.0 0 0 1410.15 1243.63
  L 1410.17 1243.76
  A 8.62 0.49 85.5 0 0 1411.33 1252.32
  A 8.62 0.49 85.5 0 0 1411.14 1243.68
  L 1411.13 1243.55
  A 0.17 0.17 0.0 0 0 1410.95 1243.40
  Z"></path>
<path d="
  M 1568.00 1599.48
  L 1568.00 1600.00
  L 1567.47 1600.00
  L 1568.00 1599.48
  Z"></path>
</g>
</svg></svg></g></g><defs><clipPath id="SvgjsClipPath1047"><rect width="1000" height="1000" x="0" y="0" rx="100" ry="100"></rect></clipPath></defs></svg></g><g id="dark-icon"><svg xmlns="http://www.w3.org/2000/svg" version="1.1" xmlns:xlink="http://www.w3.org/1999/xlink" width="1000" height="1000"><g><g transform="matrix(0.625,0,0,0.625,10,0)"><svg xmlns="http://www.w3.org/2000/svg" version="1.1" xmlns:xlink="http://www.w3.org/1999/xlink" width="1568" height="1600"><svg xmlns="http://www.w3.org/2000/svg" version="1.1" viewBox="0.00 0.00 1568.00 1600.00">
<g fill="#ffffff">
<path d="
  M 899.50 0.00
  L 898.36 0.39
  A 0.14 0.14 0.0 0 0 898.38 0.66
  Q 914.60 2.95 918.44 18.44
  C 919.47 22.62 919.29 29.69 919.12 34.87
  C 916.02 126.19 915.07 235.18 913.63 313.75
  Q 911.89 408.72 906.80 498.00
  Q 906.62 501.10 906.71 503.99
  C 907.27 522.20 908.03 540.09 908.14 557.50
  Q 908.22 569.85 906.74 599.00
  C 904.22 648.47 899.23 712.76 898.78 764.75
  Q 898.41 806.30 902.76 847.84
  A 0.32 0.32 0.0 0 0 903.33 848.01
  Q 935.15 808.36 971.96 769.69
  Q 1037.42 700.93 1048.22 689.47
  Q 1063.90 672.85 1076.82 658.06
  C 1079.33 655.18 1082.36 652.36 1085.94 651.07
  Q 1094.73 647.90 1102.56 651.41
  Q 1106.63 653.24 1114.45 661.35
  Q 1130.67 678.15 1161.82 710.27
  C 1164.81 713.36 1168.34 716.94 1171.46 719.02
  Q 1174.16 720.81 1181.82 727.17
  C 1188.22 732.48 1192.98 738.23 1195.04 745.88
  C 1198.99 760.57 1206.53 768.99 1206.42 783.09
  A 0.70 0.70 0.0 0 1 1205.66 783.78
  L 1196.84 783.01
  A 0.90 0.86 -52.0 0 0 1196.43 783.07
  Q 1194.85 783.65 1193.82 784.50
  A 2.32 2.28 80.3 0 0 1193.15 785.46
  C 1191.62 789.64 1190.09 793.11 1189.52 797.65
  Q 1187.92 810.40 1185.92 822.46
  Q 1183.31 838.24 1172.64 849.88
  Q 1153.58 870.67 1080.19 951.79
  C 1046.31 989.25 1011.22 1025.19 975.51 1060.57
  C 959.71 1076.22 949.07 1088.90 932.16 1107.91
  Q 906.49 1136.76 881.20 1159.94
  Q 855.23 1183.74 826.54 1206.80
  C 816.76 1214.66 805.59 1222.72 794.28 1224.28
  C 777.09 1226.65 758.72 1215.52 745.59 1204.63
  Q 714.34 1178.75 681.46 1144.04
  Q 665.28 1126.96 642.31 1105.44
  Q 612.12 1077.15 578.39 1046.85
  C 566.81 1036.45 555.97 1025.56 545.41 1015.77
  C 510.98 983.88 473.55 949.16 438.39 914.24
  Q 428.27 904.19 423.75 899.21
  Q 420.92 896.10 410.59 883.73
  Q 384.87 852.92 355.21 827.21
  C 347.64 820.66 339.43 813.08 334.87 804.17
  C 329.26 793.23 332.99 784.14 340.53 775.35
  Q 354.29 759.31 358.32 754.33
  Q 364.23 747.04 369.74 736.27
  C 371.15 733.51 374.92 729.90 377.88 728.04
  Q 391.55 719.42 403.66 716.19
  Q 405.72 715.64 414.81 713.83
  A 3.69 3.65 -70.1 0 0 416.39 713.08
  L 422.17 708.32
  A 4.11 3.29 -14.1 0 0 422.56 707.94
  L 432.30 696.50
  A 0.76 0.76 0.0 0 0 432.47 695.86
  Q 431.35 690.56 432.02 685.87
  A 0.55 0.55 0.0 0 1 432.68 685.41
  Q 446.03 688.35 461.72 690.65
  Q 474.85 692.57 484.79 697.62
  Q 488.05 699.28 493.93 704.80
  C 502.88 713.21 514.20 724.16 525.47 734.35
  Q 587.66 790.61 588.60 791.45
  C 613.06 813.55 633.54 833.33 654.83 855.09
  A 0.39 0.38 23.7 0 0 655.49 854.84
  C 657.59 778.39 658.77 686.20 664.91 602.72
  C 666.27 584.12 669.23 561.70 669.30 544.25
  C 669.36 526.61 668.80 505.21 667.95 487.93
  C 665.69 442.04 663.58 411.62 663.78 372.25
  Q 663.84 362.01 663.25 355.27
  C 661.09 330.19 660.21 304.18 660.67 280.75
  Q 661.53 237.69 661.60 214.75
  Q 661.64 202.00 660.39 187.25
  Q 655.15 125.11 654.82 121.73
  Q 654.50 118.44 653.87 116.16
  C 651.21 106.63 649.07 100.72 650.05 92.82
  Q 650.38 90.14 653.63 84.41
  Q 656.09 80.07 659.29 71.05
  Q 661.79 63.96 667.97 58.25
  A 9.78 9.46 -5.4 0 0 669.41 56.57
  Q 677.29 44.83 691.24 42.98
  A 9.46 9.40 -63.9 0 0 694.83 41.74
  Q 700.32 38.48 704.52 34.43
  A 2.25 2.08 -79.3 0 1 705.03 34.05
  L 709.63 31.52
  A 2.53 2.47 22.4 0 1 710.20 31.29
  Q 716.21 29.64 718.01 28.54
  Q 735.50 17.78 743.95 12.71
  C 753.85 6.76 765.81 1.72 777.50 1.51
  Q 810.44 0.94 866.65 0.65
  A 0.15 0.15 0.0 0 0 866.80 0.50
  L 866.80 0.49
  A 0.14 0.14 0.0 0 0 866.66 0.35
  L 834.44 0.00
  L 899.50 0.00
  Z
  M 480.32 902.65
  L 481.32 903.50
  A 0.19 0.19 0.0 0 0 481.62 903.27
  Q 481.29 902.54 480.55 902.26
  A 0.23 0.23 0.0 0 0 480.32 902.65
  Z"></path>
<path d="
  M 26.39 1212.88
  L 33.44 1223.03
  A 0.62 0.62 0.0 0 0 34.32 1223.18
  Q 54.77 1208.61 74.81 1199.25
  C 93.65 1190.45 114.53 1187.54 135.51 1187.56
  Q 155.26 1187.58 175.24 1187.05
  C 187.10 1186.73 195.44 1193.57 199.23 1204.50
  A 8.86 6.90 62.4 0 1 199.56 1205.69
  Q 200.03 1207.90 200.18 1219.25
  Q 201.71 1329.78 202.40 1382.40
  A 0.79 0.78 9.4 0 0 202.94 1383.14
  L 214.15 1386.76
  A 3.47 3.41 -35.5 0 0 215.22 1386.93
  Q 233.80 1387.17 236.75 1387.16
  Q 295.27 1387.05 443.75 1385.33
  Q 500.29 1384.67 563.85 1386.68
  Q 601.91 1387.88 652.09 1391.30
  Q 730.54 1396.65 740.25 1397.21
  C 783.35 1399.73 828.46 1401.22 866.75 1399.24
  Q 898.56 1397.59 911.75 1397.33
  C 974.40 1396.11 1045.28 1392.92 1145.00 1388.80
  C 1148.57 1388.65 1155.51 1388.41 1160.67 1388.62
  Q 1179.39 1389.36 1202.41 1388.49
  Q 1219.73 1387.83 1244.00 1384.84
  C 1276.47 1380.83 1307.32 1376.94 1338.42 1372.21
  Q 1345.09 1371.20 1351.89 1369.03
  C 1361.80 1365.87 1370.28 1363.35 1380.23 1364.26
  C 1385.35 1364.73 1391.93 1367.23 1395.69 1368.14
  A 2.08 2.07 -58.0 0 0 1397.66 1367.68
  L 1406.22 1359.95
  A 1.33 1.31 -26.5 0 0 1406.64 1358.72
  L 1406.16 1356.15
  A 1.28 1.26 8.0 0 0 1405.49 1355.27
  Q 1398.18 1351.59 1385.08 1345.42
  C 1380.21 1343.12 1373.94 1338.82 1371.94 1333.86
  A 3.23 2.73 -64.2 0 1 1371.75 1333.12
  Q 1366.71 1292.15 1364.00 1247.73
  Q 1363.26 1235.56 1363.37 1233.26
  C 1363.95 1221.85 1367.18 1211.36 1377.67 1205.74
  C 1381.18 1203.86 1388.33 1203.34 1391.56 1203.10
  C 1407.64 1201.87 1426.17 1200.68 1443.26 1199.13
  C 1458.72 1197.72 1474.17 1197.24 1489.28 1198.32
  C 1498.34 1198.96 1502.29 1199.61 1510.65 1199.10
  C 1524.79 1198.25 1543.06 1198.30 1549.06 1214.43
  C 1550.44 1218.14 1551.19 1224.45 1551.39 1228.85
  C 1552.23 1247.48 1550.14 1267.67 1546.88 1286.67
  C 1545.15 1296.78 1545.32 1306.07 1546.37 1315.68
  C 1547.99 1330.53 1552.41 1357.97 1552.78 1378.25
  C 1552.97 1388.51 1552.93 1393.78 1554.39 1403.19
  Q 1556.06 1413.92 1556.73 1420.50
  C 1557.15 1424.63 1557.52 1430.39 1556.79 1435.82
  Q 1555.18 1447.85 1554.99 1450.50
  C 1553.36 1472.50 1557.78 1495.38 1566.09 1515.63
  C 1567.01 1517.89 1565.65 1520.28 1563.81 1522.15
  Q 1560.38 1525.65 1554.22 1532.59
  Q 1552.70 1534.30 1548.29 1536.49
  A 2.94 2.90 34.8 0 1 1546.66 1536.77
  Q 1538.49 1535.74 1531.83 1531.20
  A 0.71 0.71 0.0 0 0 1531.09 1531.17
  C 1517.29 1538.80 1504.08 1548.02 1495.18 1553.42
  Q 1484.26 1560.04 1470.52 1564.88
  C 1467.54 1565.94 1463.58 1566.94 1460.06 1567.38
  Q 1447.60 1568.95 1426.01 1571.03
  C 1334.74 1579.81 1244.10 1585.18 1152.75 1589.18
  C 1118.20 1590.69 1061.76 1592.88 1017.74 1593.80
  Q 938.13 1595.45 864.00 1595.72
  C 775.58 1596.05 680.98 1593.71 594.53 1589.85
  Q 570.99 1588.80 551.51 1587.22
  Q 526.60 1585.19 508.50 1584.07
  C 461.74 1581.18 413.98 1580.84 359.25 1581.81
  Q 304.86 1582.77 247.40 1584.75
  Q 200.88 1586.35 174.09 1586.67
  Q 112.05 1587.42 100.75 1587.22
  Q 64.02 1586.59 35.27 1585.46
  C 10.69 1584.50 9.76 1559.28 11.48 1541.00
  C 14.86 1505.10 16.48 1469.44 15.03 1432.50
  Q 11.21 1335.05 10.57 1318.25
  C 10.29 1310.80 9.71 1303.51 8.11 1294.84
  C 5.70 1281.72 3.92 1267.26 9.40 1254.71
  C 12.93 1246.62 14.16 1238.20 16.92 1229.19
  Q 19.87 1219.55 25.38 1212.84
  A 0.63 0.63 0.0 0 1 26.39 1212.88
  Z
  M 1410.95 1243.40
  L 1410.31 1243.45
  A 0.17 0.17 0.0 0 0 1410.15 1243.63
  L 1410.17 1243.76
  A 8.62 0.49 85.5 0 0 1411.33 1252.32
  A 8.62 0.49 85.5 0 0 1411.14 1243.68
  L 1411.13 1243.55
  A 0.17 0.17 0.0 0 0 1410.95 1243.40
  Z"></path>
<path d="
  M 1568.00 1599.48
  L 1568.00 1600.00
  L 1567.47 1600.00
  L 1568.00 1599.48
  Z"></path>
</g>
</svg></svg></g></g></svg></g></svg>