<?xml version="1.0" encoding="UTF-8" standalone="no"?>
<!DOCTYPE svg PUBLIC "-//W3C//DTD SVG 1.1//EN" "http://www.w3.org/Graphics/SVG/1.1/DTD/svg11.dtd">
<svg xmlns="http://www.w3.org/2000/svg" version="1.1" viewBox="0.00 0.00 1020.00 470.00">
<g fill="currentColor">
<path d="
  M 880.69 201.83
  Q 878.02 203.57 876.28 205.53
  Q 863.52 219.91 849.23 234.57
  A 25.20 25.17 83.6 0 0 846.07 238.53
  Q 841.56 245.55 835.63 251.84
  C 832.38 255.30 826.51 256.96 825.00 250.76
  Q 823.12 243.05 823.08 231.25
  C 822.96 200.80 822.72 170.19 823.54 141.00
  C 823.72 134.41 825.20 128.28 825.42 121.57
  C 826.32 94.06 825.96 66.37 825.94 40.51
  A 0.64 0.64 0.0 0 0 825.34 39.87
  Q 823.29 39.76 822.33 39.87
  Q 804.27 41.94 791.78 39.28
  Q 789.68 38.84 786.28 36.20
  A 0.47 0.47 0.0 0 1 786.36 35.41
  Q 790.66 33.16 792.27 31.65
  C 795.34 28.79 800.25 27.77 803.28 27.77
  Q 822.65 27.79 834.61 27.51
  A 1.85 1.83 72.6 0 1 836.18 28.34
  C 838.21 31.42 838.85 34.69 838.45 38.71
  Q 838.00 43.34 838.08 49.07
  C 838.12 52.44 837.41 56.75 837.39 59.75
  Q 837.18 101.96 835.63 143.50
  Q 835.34 151.22 835.49 161.00
  Q 835.69 175.13 835.32 178.51
  Q 832.70 202.51 833.51 232.76
  Q 833.54 233.94 833.88 236.71
  A 0.62 0.62 0.0 0 0 834.97 237.03
  Q 835.71 236.17 839.55 230.80
  Q 840.77 229.10 842.03 228.29
  C 843.45 227.39 843.86 225.78 844.97 224.55
  C 850.78 218.11 857.37 211.73 862.28 206.42
  Q 868.39 199.83 874.86 192.86
  C 877.90 189.58 881.46 186.82 885.52 190.90
  Q 892.04 197.47 898.63 204.39
  A 9.71 9.35 84.8 0 0 899.81 205.41
  Q 902.78 207.55 904.89 209.77
  A 6.47 6.47 0.0 0 1 906.24 211.92
  L 909.86 221.26
  A 1.06 1.06 0.0 0 1 908.71 222.69
  L 906.33 222.32
  A 0.59 0.59 0.0 0 0 905.65 222.86
  C 905.28 227.74 904.56 232.03 902.37 236.72
  Q 901.25 239.11 897.30 243.10
  Q 895.18 245.24 886.99 254.50
  Q 869.84 273.91 854.38 289.16
  A 0.93 0.91 58.2 0 0 854.16 290.13
  Q 861.10 309.97 860.99 331.08
  Q 860.94 340.31 859.01 344.12
  Q 855.89 350.27 848.87 352.04
  Q 838.66 354.62 832.24 346.05
  Q 830.11 343.21 828.14 335.41
  C 825.23 323.94 823.35 314.75 823.04 304.62
  A 0.97 0.97 0.0 0 0 821.33 304.03
  C 816.18 310.22 811.82 318.19 811.13 326.19
  C 810.83 329.72 810.22 334.04 810.14 337.86
  Q 810.07 341.39 809.31 343.47
  Q 804.76 355.93 791.39 354.56
  C 783.37 353.74 779.65 347.26 777.83 340.32
  A 3.63 3.50 -53.4 0 1 777.71 339.40
  L 777.71 327.06
  A 5.31 4.97 55.4 0 1 777.94 325.53
  L 778.26 324.50
  A 7.48 7.31 56.2 0 0 778.57 322.84
  Q 779.20 312.55 778.23 305.79
  C 777.68 302.00 778.04 298.07 777.69 294.98
  A 1.84 1.83 61.4 0 0 774.45 294.02
  L 767.31 302.73
  A 3.99 3.89 -14.6 0 0 766.73 303.69
  Q 759.29 321.37 752.77 341.19
  Q 748.45 354.34 734.61 353.88
  C 725.94 353.59 720.00 345.38 718.72 336.96
  Q 718.11 332.93 719.12 325.05
  Q 721.06 309.79 725.26 278.04
  Q 726.12 271.56 731.62 268.57
  A 0.41 0.41 0.0 0 0 731.71 267.92
  C 726.42 262.57 720.23 257.37 715.20 251.52
  Q 710.07 245.57 707.73 243.04
  C 703.42 238.37 699.84 235.35 695.78 231.58
  C 691.96 228.02 690.74 221.57 695.50 218.04
  Q 697.36 216.67 700.40 212.24
  Q 702.55 209.10 704.33 207.98
  Q 708.20 205.56 712.86 204.90
  A 1.09 1.09 0.0 0 1 714.10 205.94
  C 714.31 213.94 710.47 219.14 705.08 224.43
  A 1.28 1.27 47.8 0 0 705.00 226.15
  C 720.97 245.00 740.50 262.82 757.12 277.29
  A 0.82 0.81 -41.4 0 0 758.11 277.35
  C 763.04 274.05 771.81 268.55 777.52 268.32
  Q 784.33 268.04 789.86 272.65
  Q 795.54 277.39 800.25 282.99
  A 0.52 0.51 -48.8 0 0 801.08 282.93
  Q 809.71 269.29 825.99 268.06
  C 834.22 267.44 843.07 273.31 848.01 279.65
  A 0.39 0.38 -44.2 0 0 848.61 279.65
  Q 853.96 273.10 855.98 270.59
  C 857.14 269.15 859.07 268.41 859.76 266.59
  A 1.49 1.49 0.0 0 1 860.25 265.93
  C 862.63 264.05 865.27 259.69 867.82 256.95
  Q 875.84 248.37 882.78 240.03
  C 883.37 239.31 883.75 238.41 884.35 237.89
  Q 886.34 236.17 887.52 233.75
  A 2.98 2.94 -5.0 0 1 888.47 232.63
  Q 889.58 231.85 892.32 229.21
  C 895.50 226.16 899.52 224.02 903.59 222.82
  A 0.52 0.51 -42.2 0 0 903.64 221.85
  Q 896.78 219.04 892.52 214.44
  C 887.99 209.54 884.84 206.79 881.49 201.99
  A 0.59 0.58 -33.5 0 0 880.69 201.83
  Z"
/>
<path d="
  M 771.92 238.59
  Q 772.37 235.22 772.45 232.00
  Q 773.56 186.49 774.62 175.56
  Q 775.81 163.34 775.70 159.57
  C 774.95 134.05 774.54 123.17 773.74 108.24
  C 773.25 99.12 774.22 88.79 773.72 80.59
  Q 772.42 58.80 772.25 57.38
  A 7.71 6.94 57.4 0 0 772.02 56.33
  L 770.69 51.75
  A 1.97 1.92 50.6 0 1 770.81 50.35
  L 774.62 42.66
  A 1.67 1.67 0.0 0 1 777.45 42.40
  L 782.10 48.64
  A 2.23 2.19 22.2 0 1 782.50 49.57
  Q 783.89 57.96 783.76 61.50
  Q 783.22 76.31 783.10 97.14
  C 783.01 113.02 785.68 128.04 785.81 144.77
  Q 786.27 202.67 783.35 249.81
  C 783.10 253.80 783.71 257.22 779.05 256.80
  Q 776.32 256.56 774.82 255.67
  Q 770.23 252.93 762.81 246.44
  Q 753.06 237.90 739.14 225.39
  C 735.10 221.76 730.75 218.72 727.65 216.20
  C 722.72 212.20 716.45 204.68 716.78 198.42
  A 0.71 0.71 0.0 0 1 717.61 197.76
  Q 724.57 198.94 726.73 199.49
  C 728.56 199.96 731.78 202.39 733.92 204.26
  Q 753.74 221.60 771.31 238.80
  A 0.36 0.36 0.0 0 0 771.92 238.59
  Z"
/>
<path d="
  M 214.79 297.01
  Q 208.07 303.18 204.16 309.92
  Q 200.51 316.21 199.11 324.62
  Q 197.61 333.61 195.30 344.30
  C 193.37 353.23 189.85 362.36 179.72 363.71
  Q 172.37 364.69 165.60 361.54
  C 162.01 359.87 158.88 354.30 157.52 351.22
  Q 152.33 339.40 150.16 328.32
  Q 145.23 303.13 145.05 288.00
  Q 144.74 261.05 145.44 249.00
  Q 146.80 225.65 149.63 210.56
  Q 151.22 202.09 158.54 198.87
  C 168.24 194.61 177.34 201.56 179.27 211.04
  Q 189.90 263.28 191.66 271.87
  A 1.52 1.52 0.0 0 0 193.92 272.88
  Q 203.29 267.40 213.66 266.18
  C 233.17 263.89 244.60 280.95 249.83 297.14
  Q 253.60 308.79 255.51 319.27
  Q 256.09 322.47 256.20 329.27
  Q 256.29 334.61 254.69 339.06
  Q 251.66 347.47 245.60 353.82
  Q 242.92 356.63 238.09 357.23
  C 231.65 358.02 227.65 353.70 225.89 347.86
  Q 223.81 340.92 222.94 334.00
  Q 221.27 320.61 219.90 309.13
  Q 219.22 303.40 215.54 297.13
  A 0.49 0.49 0.0 0 0 214.79 297.01
  Z"
/>
<path d="
  M 292.53 212.61
  C 302.18 215.33 305.14 224.68 305.74 233.96
  Q 306.12 240.00 306.58 242.02
  Q 307.05 244.09 308.04 257.25
  Q 309.59 278.07 310.48 290.25
  C 311.26 300.93 311.03 312.46 311.64 324.43
  C 312.00 331.29 310.80 338.73 309.55 346.52
  C 308.10 355.50 306.21 363.02 296.92 366.70
  Q 291.61 368.81 285.79 366.39
  C 278.69 363.44 275.98 357.36 274.51 349.82
  C 273.98 347.10 272.83 344.35 272.59 341.35
  Q 268.29 286.61 275.33 232.13
  Q 276.15 225.77 277.39 223.36
  Q 279.31 219.62 282.81 216.10
  Q 285.03 213.85 291.13 212.56
  A 2.92 2.85 -42.3 0 1 292.53 212.61
  Z"
/>
<path d="
  M 527.29 297.25
  A 0.32 0.32 0.0 0 0 527.81 297.49
  Q 544.65 284.06 563.31 273.74
  C 570.53 269.75 579.56 270.33 583.54 278.29
  A 2.49 2.46 31.2 0 1 583.81 279.37
  Q 583.89 285.10 583.32 286.35
  C 580.92 291.59 576.03 295.34 570.85 299.59
  Q 568.36 301.63 552.15 314.97
  A 0.65 0.65 0.0 0 0 552.25 316.04
  Q 569.93 325.65 586.11 335.64
  Q 587.21 336.32 591.99 340.02
  C 599.68 345.97 603.85 355.98 597.18 364.60
  Q 594.38 368.23 589.49 369.71
  C 579.46 372.76 571.03 366.95 563.48 360.20
  Q 548.92 347.16 534.88 333.29
  A 0.57 0.57 0.0 0 0 533.96 333.46
  Q 530.13 341.81 528.06 347.82
  C 524.88 357.06 521.49 363.68 512.64 365.93
  Q 506.94 367.38 501.55 364.96
  Q 492.27 360.79 490.25 349.48
  Q 490.13 348.80 488.93 340.82
  Q 488.04 334.88 488.00 332.12
  Q 487.57 303.39 490.65 273.68
  C 492.11 259.61 494.79 244.70 497.29 227.51
  C 497.88 223.44 499.11 215.66 503.57 213.71
  Q 507.25 212.11 511.70 213.08
  C 519.75 214.86 522.33 226.30 522.82 233.26
  C 525.24 266.90 526.66 283.65 527.29 297.25
  Z"
/>
<ellipse cx="0.00" cy="0.00" transform="translate(345.00,239.07) rotate(-57.4)" rx="14.45" ry="13.96"/>
<path d="
  M 449.21 294.55
  C 445.59 292.59 443.24 287.79 440.80 285.61
  Q 435.35 280.74 428.46 285.96
  C 424.48 288.98 421.42 291.93 418.78 296.22
  Q 411.97 307.30 410.98 321.16
  Q 410.54 327.35 412.74 331.03
  Q 416.36 337.08 424.24 338.01
  Q 428.42 338.50 431.50 338.29
  Q 446.71 337.24 460.23 336.82
  Q 465.71 336.65 470.07 339.14
  C 474.12 341.45 472.65 348.08 470.51 351.09
  A 3.98 3.91 -2.5 0 1 469.81 351.84
  C 460.18 359.95 447.38 367.26 434.78 368.99
  C 426.35 370.16 418.63 370.51 410.40 368.36
  C 395.81 364.55 384.82 353.82 380.04 339.53
  Q 378.30 334.32 378.31 327.27
  Q 378.33 316.77 378.58 314.52
  Q 380.47 297.55 390.19 283.47
  C 399.42 270.09 413.42 259.07 429.57 256.40
  Q 435.81 255.36 441.84 257.24
  C 454.24 261.10 464.31 271.63 462.61 285.34
  Q 461.94 290.78 458.40 293.05
  Q 455.96 294.61 450.73 294.89
  A 2.80 2.79 -32.3 0 1 449.21 294.55
  Z"
/>
<path d="
  M 902.37 326.02
  Q 907.51 328.12 910.93 328.62
  Q 922.75 330.37 926.55 331.18
  C 931.17 332.17 936.62 334.49 938.41 339.06
  Q 940.40 344.16 936.70 348.75
  Q 930.09 356.95 919.20 358.43
  C 913.11 359.26 904.84 358.57 898.78 356.79
  Q 874.15 349.56 868.21 323.61
  A 7.99 7.50 40.6 0 1 868.01 321.78
  Q 868.01 317.99 867.84 315.08
  C 867.10 302.62 871.06 289.74 877.50 279.41
  C 886.08 265.66 899.34 259.10 915.11 261.69
  Q 935.90 265.10 947.97 281.77
  Q 952.12 287.50 952.22 296.52
  Q 952.31 304.92 946.33 311.42
  C 939.75 318.59 931.06 320.68 921.70 322.70
  Q 918.00 323.49 902.41 325.71
  A 0.16 0.16 0.0 0 0 902.37 326.02
  Z
  M 900.83 297.48
  L 927.30 294.47
  A 0.80 0.80 0.0 0 0 927.82 293.15
  C 921.07 285.24 907.40 281.06 901.75 292.96
  Q 900.36 295.87 900.25 296.90
  A 0.52 0.52 0.0 0 0 900.83 297.48
  Z"
/>
<path d="
  M 64.61 373.81
  A 0.37 0.37 0.0 0 0 64.16 374.18
  Q 64.34 396.61 64.06 412.24
  C 63.89 421.83 60.86 431.67 50.87 434.88
  Q 39.49 438.53 31.69 429.82
  C 27.40 425.03 26.98 421.17 27.03 414.00
  Q 27.18 390.52 27.01 360.00
  Q 26.94 346.57 28.34 335.51
  Q 29.24 328.39 31.25 319.78
  C 34.04 307.81 36.10 292.91 38.02 283.52
  C 38.79 279.75 41.76 275.21 46.16 275.53
  C 49.99 275.81 52.78 277.64 55.41 280.60
  A 1.42 1.41 -33.9 0 0 57.11 280.93
  Q 64.82 277.02 72.86 274.43
  Q 81.28 271.72 87.19 271.50
  C 102.34 270.94 113.77 277.30 121.55 290.26
  Q 129.67 303.77 130.91 319.67
  Q 131.82 331.46 130.13 339.32
  C 126.53 355.93 112.88 368.00 96.91 373.18
  Q 88.66 375.86 80.85 375.79
  Q 74.14 375.74 64.61 373.81
  Z
  M 69.24 313.51
  C 66.62 317.46 56.22 333.05 67.29 334.86
  C 77.23 336.48 88.02 338.31 96.15 330.63
  A 3.26 3.19 82.6 0 0 96.79 329.78
  Q 99.85 323.88 99.36 316.80
  C 98.90 310.12 98.16 300.16 89.70 300.34
  C 81.45 300.52 73.68 306.83 69.24 313.51
  Z"
/>
<path d="
  M 346.15 367.72
  C 336.46 368.87 328.97 363.90 327.83 354.21
  C 326.80 345.40 328.35 337.49 329.95 324.50
  Q 332.69 302.27 337.27 280.56
  C 338.69 273.83 347.26 271.28 353.05 272.88
  C 359.46 274.64 361.30 279.99 361.31 286.00
  Q 361.35 302.43 361.01 330.50
  Q 360.98 332.72 360.16 344.97
  C 359.56 353.76 355.61 364.55 346.94 367.54
  A 4.29 3.88 -55.0 0 1 346.15 367.72
  Z"
/>
<ellipse cx="0.00" cy="0.00" transform="translate(689.36,331.82) rotate(-66.1)" rx="21.07" ry="19.43"/>
<path d="
  M 622.83 412.65
  Q 629.12 412.52 631.58 412.82
  Q 634.66 413.19 640.41 412.83
  C 651.73 412.12 668.01 412.19 679.08 411.53
  C 685.13 411.16 696.09 410.47 704.65 410.45
  Q 736.89 410.39 739.86 410.33
  C 759.20 409.95 777.32 411.45 797.68 412.08
  Q 801.27 412.20 818.32 412.92
  Q 856.56 414.55 894.25 411.48
  C 897.95 411.18 901.46 410.62 904.25 410.46
  C 921.43 409.44 939.36 408.16 956.99 406.08
  Q 968.60 404.71 971.51 404.75
  Q 978.79 404.87 986.07 405.30
  A 0.61 0.60 -4.3 0 0 986.70 404.57
  Q 986.22 402.36 986.27 401.25
  Q 986.61 393.30 986.86 382.25
  C 986.93 378.89 985.44 374.97 985.15 371.87
  C 984.06 360.44 982.50 349.27 983.08 338.29
  A 0.41 0.40 -82.6 0 0 982.76 337.87
  Q 971.95 335.79 961.65 336.53
  A 1.29 1.29 0.0 0 0 960.45 337.86
  Q 960.75 346.20 962.82 354.25
  Q 964.27 359.85 959.80 364.19
  A 1.09 1.08 -59.3 0 1 958.78 364.46
  Q 952.56 362.88 949.94 357.73
  A 1.15 1.12 31.7 0 1 949.83 357.29
  L 949.63 350.29
  A 3.54 3.28 42.8 0 0 949.59 349.77
  Q 947.92 339.23 948.43 331.95
  C 948.74 327.53 952.87 326.57 957.36 325.96
  Q 968.85 324.40 983.48 325.10
  C 986.99 325.27 990.32 324.94 992.49 326.98
  C 996.22 330.50 995.74 334.89 995.05 339.77
  Q 993.81 348.42 994.48 357.23
  Q 995.57 371.62 996.57 383.28
  A 6.03 5.74 -43.6 0 1 996.49 384.88
  Q 995.08 392.83 997.21 399.78
  C 998.64 404.46 998.64 407.05 994.54 409.59
  A 0.90 0.88 -55.8 0 1 993.94 409.71
  L 989.89 409.07
  A 2.23 2.22 -58.1 0 0 988.23 409.46
  Q 988.06 409.56 979.80 414.78
  C 975.58 417.45 969.26 417.87 965.28 418.45
  Q 961.19 419.04 957.69 419.09
  C 951.61 419.17 945.12 420.49 938.74 420.66
  C 925.44 421.01 907.87 422.51 891.43 423.27
  Q 887.53 423.45 885.22 423.85
  C 882.52 424.31 880.08 423.69 876.92 423.81
  Q 816.86 425.98 754.25 423.24
  C 750.10 423.06 745.70 422.11 742.24 421.95
  Q 717.00 420.81 711.99 420.97
  Q 670.02 422.32 630.75 422.41
  Q 625.95 422.43 619.72 422.21
  C 612.25 421.96 611.00 414.43 612.25 408.75
  Q 613.23 404.33 613.30 402.27
  Q 613.94 383.82 612.15 356.75
  Q 611.84 352.04 610.81 345.51
  A 8.05 8.04 -41.8 0 1 611.00 342.17
  Q 612.50 336.71 615.18 329.78
  A 1.03 1.00 -40.8 0 1 617.13 329.89
  Q 617.33 330.86 618.22 331.10
  A 1.06 1.06 0.0 0 0 619.12 330.93
  Q 628.10 324.42 635.95 323.22
  Q 642.86 322.17 655.11 322.70
  A 2.69 2.58 -28.4 0 1 656.23 323.01
  Q 659.50 324.76 659.56 328.74
  Q 660.09 359.60 660.03 371.39
  A 0.70 0.69 -82.3 0 0 660.54 372.06
  Q 662.37 372.53 663.50 372.53
  Q 727.31 372.00 728.98 371.99
  C 742.43 371.88 755.20 372.83 767.02 372.78
  C 768.49 372.77 770.31 373.21 771.62 373.54
  A 7.08 6.99 52.9 0 0 773.06 373.75
  Q 780.16 374.01 791.88 374.87
  C 795.60 375.15 798.93 374.78 802.35 375.14
  C 807.37 375.68 812.02 375.39 817.00 375.39
  Q 827.26 375.38 875.58 373.46
  C 878.52 373.34 881.95 372.74 884.51 372.75
  Q 899.20 372.77 911.97 372.73
  A 3.21 3.17 38.2 0 0 912.68 372.65
  L 915.59 371.92
  A 13.18 12.93 34.9 0 1 917.62 371.58
  Q 934.62 370.09 949.64 366.91
  A 5.10 5.00 41.3 0 1 951.28 366.82
  C 954.84 367.18 957.76 368.22 960.95 368.35
  A 2.40 2.21 0.7 0 1 963.24 370.51
  Q 963.26 371.38 962.14 372.41
  Q 956.12 377.98 947.62 379.17
  Q 935.28 380.90 930.48 381.06
  Q 924.22 381.26 923.33 381.39
  C 918.61 382.12 913.18 381.56 908.13 382.05
  Q 904.54 382.40 900.11 382.53
  Q 877.35 383.19 855.24 384.19
  Q 843.23 384.73 827.26 385.45
  Q 817.69 385.87 806.58 386.01
  C 791.66 386.19 776.51 385.26 760.01 385.38
  Q 754.95 385.42 745.22 384.57
  Q 735.67 383.74 730.46 383.68
  Q 709.56 383.48 700.36 383.20
  C 686.56 382.78 677.73 383.16 659.93 383.45
  C 654.30 383.55 649.23 384.11 648.65 377.63
  Q 647.84 368.57 647.95 361.51
  C 648.07 352.71 647.61 345.98 647.64 336.46
  A 0.71 0.70 86.1 0 0 646.84 335.76
  Q 641.65 336.47 635.20 336.35
  C 630.20 336.26 624.35 334.13 620.52 332.99
  A 0.74 0.74 0.0 0 0 619.65 334.02
  C 622.43 339.79 623.75 347.47 623.59 354.21
  C 623.36 363.77 622.55 373.67 622.53 383.27
  Q 622.47 410.03 622.25 412.02
  A 0.57 0.57 0.0 0 0 622.83 412.65
  Z"
/>
</g>
</svg>
