<svg xmlns="http://www.w3.org/2000/svg" viewBox="0 0 1027 471" fill="currentColor" xmlns:v="https://vecta.io/nano"><path d="M757.44 353.86q-4.35 2.54-7.92 2.98c-8.87 1.09-15.76-4.02-18.73-12.46q-2.07-5.9-1.29-11.56 1.34-9.84 1.42-10.92.38-5.07 1.3-10.65 1.16-7.11 1.23-10.73a.29.28 80.2 0 1 .17-.25q.16-.07.18-.27 1.22-10.18 1.75-14.2c.94-7.01 1.27-11.94 7.28-14.98a.38.38 0 0 0 .09-.61q-10.6-10.19-13.64-13.08-1.8-1.7-7.46-8.46-6.47-7.74-14.8-14.59c-3.75-3.09-5.4-8.98-2.16-13.01a1.79 1.79 0 0 1 .94-.61q1.63-.41 2.35-2.43a1.36 1.36 0 0 1 .52-.67c2.49-1.66 2.99-5.06 5.36-6.8q4.65-3.42 10.14-3.9a.66.65 82.9 0 1 .7.55c1.23 7.31-3.68 14.43-8.94 19.17a1.04 1.04 0 0 0-.2 1.3q.76 1.31 2.07 2.78 14.77 16.62 25.77 26.73 8.51 7.84 24.68 22.35a1.02 1.02 0 0 0 1.28.07q5.08-3.63 11.95-6.88c7.32-3.46 14.23-2.59 20.65 2.89q5.36 4.57 9.74 9.88a.39.39 0 0 0 .63-.04q5.36-8.57 13.76-12.43 13.52-6.21 25.63 1.64 4.87 3.15 7.85 7.34a.56.55-43.4 0 0 .88.02l8.38-10.36a2.19 2.17 7.3 0 1 .78-.6q.72-.31.8-.36.5-.27.59-.7c.33-1.64 1.88-2.01 2.77-3.38q2.7-4.15 6.28-7.91 8.45-8.9 12.24-13.84c.91-1.18 1.94-1.46 2.54-2.84q1.02-2.35 2.77-3.33a1.63 1.59 89.1 0 0 .64-.68q1.54-3.05 2.22-3.46 1.71-1.01 2.77-2.24c3.31-3.86 7.57-6.4 12.68-7.72a.39.38 48.5 0 0 .04-.73q-8.48-3.32-14.59-11.08a5.56 5.39-89.2 0 0-.66-.7q-3.86-3.35-7.3-8.42a.53.53 0 0 0-.87-.01q-.61.89-1.45 1.22a3.79 3.75 10.2 0 0-1.5 1.03q-15.38 17.37-28.59 30.73c-2.76 2.79-6.12 8.94-9.61 12.83q-1.72 1.93-3.94 4.46c-3.81 4.34-9.98 4.91-11.19-1.85-1.12-6.28-1.87-14.39-1.77-22.13q.19-15.87.02-18.71-.19-3.08-.1-9.42.08-5.13.08-5.17-.24-29.04.61-55.09.14-4.25.7-7.55c.72-4.23 1.12-6.81 1.15-10.05.07-7.89.96-19.75.5-29.71-.23-4.96.28-9.54.18-14.68q-.22-11.63-.1-38.73a.57.56 87.7 0 0-.61-.57c-12.07.93-20.66 1.7-31.61-.1q-4.32-.71-7.97-3.54a.41.41 0 0 1 .07-.7l3.36-1.66a1.41 1.12 6.5 0 0 .32-.2q4.76-3.94 5.94-4.4 3.22-1.25 8.56-1.37.47-.01 30.59-.35a2.17 2.17 0 0 1 1.83.95q2.75 4.09 2.19 9.37-.58 5.44-.48 8.6.16 4.79-.32 8.61c-.63 4.97-.16 11.66-.51 18.43q-.13 2.5-.11 8.33.06 17.37-1.55 63.77-.3 8.44-.11 17.45.19 8.88-.17 17.48c-.14 3.23-.78 5.66-.96 8.17q-1.62 23.25-.82 46.62.04.89.29 3.08a.69.68 62.6 0 0 1.19.38c.97-1.08 1.44-2.49 2.85-3.81q.49-.46 1.2-1.78 1.15-2.15 3.43-3.59a2.78 2.77-4.6 0 0 1.07-1.25l.48-1.11a1.53 1.35-14.9 0 1 .28-.42q7.66-8.15 12.62-13.31.96-1 1.53-1.31c.78-.42 1.04-1.36 1.73-2.08q8.37-8.74 15-16.06c1.55-1.71 2.29-2.07 3.94-3.36a2.14 2.12 20 0 1 .85-.39q3.37-.69 5.76 1.7 3.05 3.06 12.92 13.31c1.72 1.78 4.33 3.51 5.78 4.83a7.88 7.85 9.6 0 1 2.31 3.24l3.61 9.45a1.11 1.11 0 0 1-1.26 1.49l-2.33-.48a.56.56 0 0 0-.67.52q-.36 9.42-3.99 15.36-1.6 2.62-6.54 7.12a8.77 8.39-71.4 0 0-.84.9q-4.46 5.54-7.05 8.32-4.88 5.22-16.49 18.05c-5.48 6.06-10.95 11.24-16.77 17.14a1.07 1.06 55.5 0 0-.21 1.17q2.07 4.71 3.32 10.6 3.37 15.98 3.43 21.12.11 10.42.12 10.99.2 6.55-1.29 10.16-2.26 5.46-6.5 7.75-6.62 3.59-13.87 1.24-6.8-2.19-9.4-10.03-1.63-4.94-2.42-7.96-.81-3.08-3.52-16.89c-.82-4.2-1.01-8.8-1.08-12.47a1.05 1.04 63.9 0 0-1.86-.64c-4.69 5.83-9.55 14.29-10.15 21.76-.41 5.09-.84 6.84-.99 12.54-.22 8.52-5.7 15.48-14.22 16.68-5.37.75-11.19-1.45-14.4-5.61q-2.75-3.57-3.97-8.62a4.22 4.12 39.1 0 1-.11-.95l-.01-12.93a3.5 3.5 0 0 1 .14-.98l.71-2.38a3.19 2.94 55.7 0 0 .13-.89c.05-7.82.44-13.66-.66-17.99a5.5 5.23 39.1 0 1-.15-1.17l-.12-8.51a1.87 1.87 0 0 0-3.28-1.2q-3.9 4.48-6.59 8.06-1.47 1.97-4.62 9.91-.74 1.86-6.94 18.64c-1.71 4.61-3.24 10.75-5.38 15.03q-.67 1.35-4.15 5.15a3.56 3.36 4.7 0 1-.75.6zm-29.35-151.13q-.54-1.58-.31-2.7a.78.78 0 0 1 .92-.6l9.45 1.95a1.66 1.42-22.8 0 1 .25.08q4.27 2.1 7.03 4.79 2.71 2.64 2.74 2.67 4.72 4.04 25.26 22.98 7.36 6.79 9.26 9.17a.29.29 0 0 0 .51-.14q.53-3.02.59-5.68.55-24.06 1.1-39.43c.15-4.2.75-8.94.76-13.4.01-6.82 1.68-14.23 1.45-21.35q-.66-20.74-1.27-38.82-.27-8.25-.46-9.8-.5-4.06-.52-9.8-.01-7.12.29-11.1.3-3.97-.13-11.09-1.27-21.21-1.36-22.18a9.89 9.57 33.8 0 0-.31-1.44l-1.26-4.21a2.37 2.37 0 0 1 .13-1.67l3.59-7.52a1.85 1.85 0 0 1 3.16-.29l4.63 6.33a2.08 2 24.8 0 1 .38.97c.44 3.56 1.35 7.22 1.21 11.67q-.66 21.36-.66 39.01 0 7.06 1.03 17.2 1.78 17.51 1.75 27.17c-.1 25.96.22 49.22-.85 72.31q-1.47 31.71-1.82 37.81c-.28 4.82-5.3 3.61-8.44 2.35a3.77 3.6 72.8 0 1-.79-.44q-6.04-4.37-12.15-9.76-14.87-13.11-22.86-20.36-4.78-4.34-9.01-7.3-5.8-4.06-8.07-7.22c-1.77-2.46-5.33-7.95-5.21-10.05a.58.21 64.9 0 0-.01-.11zM159.68 311.84q-.23-.08-.36-.09a.07.06 84.3 0 1-.06-.06l-1.32-27.53a.52.51 15.4 0 0-.22-.38q-.72-.48-.65-1.77.53-9.79-.87-16.3a.76.7 42.6 0 1-.01-.12l-.07-12.94a4.63 4.55 35.1 0 0-.3-1.63q-1.2-3.2-.5-7.76a3.72 3.21-47.1 0 0 .03-.79q-.7-10.24-.16-20.77.12-2.26.61-3.67a4.43 4.31 56.7 0 0 .24-1.24c.21-5.49 2.4-11.65 7.03-14.77 8.95-6.02 19.25-1.66 22.63 8.19q.84 2.45 1.38 5.14 9.77 48.43 12.14 59.62a.57.56-7.7 0 0 .59.44q1.52-.11 3.13-.97c7.56-4.08 16.84-6.99 25.11-5.85 16.13 2.23 24.84 16.53 29.64 31.19q3.43 10.48 5.62 22.05.7 3.75.65 7.44-.09 6.34-.04 6.84a3.95 3.86-41.6 0 1-.09 1.27q-2.66 11.71-11 20.17a2.19 2.17-77.6 0 1-.82.53c-1.28.47-2.66 1.55-4.22 1.92-7.67 1.78-12.37-2.69-14.51-9.92q-1.49-5.05-2.06-8.57-1.1-6.85-1.35-10.74a.86.82-64.7 0 0-.15-.45l-.23-.33a.12.06-73.2 0 1-.01-.05q-1.38-15.42-2.61-21.36-.52-2.49-3.73-9.26a.41.4-32.7 0 0-.63-.13q-14.42 12.42-16.52 30.63c-.48 4.22-1.22 7.15-2.02 11.43q-1.18 6.37-2.76 11.42c-2.9 9.31-7.69 14.44-17.68 14.39q-12.82-.07-16.33-11.86-3.41-11.5-2.93-12.96.15-.47-.07-.65a1.91.58 35.8 0 1-.89-1.17q-.18-3.63-.94-4.86a1.65 1.65 0 0 1-.23-1.06q.27-2.32-.73-4.12a2.75 2.72 31.1 0 1-.33-1.3q.05-4.27-.83-7.08a1.37 1.35 36.3 0 1-.07-.43l-.12-9.22a.55.55 0 0 0-.38-.51zm126.51-86.31q.53-1.05.81-2.21a2.38 2.37-17.4 0 1 .53-1.01c3.41-3.82 6.44-7.53 11.79-8.01a2.92 2.81 50.5 0 1 1.2.14c9.51 3.19 11.98 10.08 13.16 19.34q.52 4.16.48 14.14a.4.39-81 0 0 .27.38q.35.13.35.44-.04 4.07.34 6.84.5 3.65.59 6.82.25 8.57.6 12.16.89 9.21.81 14.94c-.02 1.88.65 4.49.76 7.03q.5 11.8 1.09 20.63.06.95.03 2.69-.06 3.16.61 6.14.66 2.97-.21 11.2-.77 7.37-1.74 12.79c-1.26 7.01-2.34 13.01-7.72 17.19q-6.29 4.88-13.53 3.27c-4.83-1.07-9.4-4.93-11.38-9.17q-2.18-4.69-2.63-8.53-.33-2.83-1.06-4.42a1.93 1.86-58.9 0 1-.17-.74q-.24-26.94.03-51.08.01-1.42.45-2.43a2.23 2.07 60 0 0 .17-.74q.75-15.28.31-27.07c-.05-1.47.75-2.37.81-3.61q.56-11.11.27-12.86-.44-2.64.54-7.53.71-3.56.32-10.25a1.01.91 53.4 0 1 .03-.31l1.57-6.63a.24.24 0 0 1 .44-.06q.1.18.05.51-.01.09.03.01zm215.72 68.78q.33-6.12.93-12.32 1.97-20.22 2.09-23.75c.16-4.45-.06-8.53.81-9.69a1.46 1.46 0 0 0 .29-.81q.15-3.87.13-8.2 0-.62.44-1.09a.94.93 67.6 0 0 .23-.56q.2-4.67.45-9.86.09-1.81 1.63-5.9a2.34 2.24-14.4 0 1 .48-.77q2.12-2.25 3.34-4.16.67-1.05 3.89-2.65a2.24 2.23-53.6 0 1 1.3-.2q8.26 1.3 11.73 8.88 1.02 2.23 1.94 6.1 1.03 4.32 1.28 11.42.17 5.02.88 11.48.29 2.62.55 8.63.1 2.29.61 8.63.58 7.23.74 10.55c.32 6.56 1.52 13.01 1.18 19.77a.36.35 72 0 0 .58.3q16.86-13.75 35.83-24.07 6.61-3.59 13.29-1.77 4.37 1.19 7.16 6.48.5.95-.12 7.49a2.79 2.76-29.2 0 1-.28.97q-1.88 3.73-5.05 6.53-7.07 6.23-7.75 6.75-6.46 4.86-18.5 15.31a.52.52 0 0 0 .09.85q17.9 9.75 32.7 18.86c3.8 2.34 8.63 5.9 11.61 9.34q1.68 1.93 3.27 5.76 1.42 3.41 1.07 6.53c-.66 5.91-3.84 10.5-9.37 13.01-10.41 4.72-20.18-1.86-27.9-8.87q-16.51-14.99-28.66-27.06a.73.73 0 0 0-1.19.23c-2.91 6.91-4.84 10.87-6.91 17.23q-1.02 3.12-2.71 6.09-2.01 3.52-4.06 5.25-7.13 6.03-16 3.94c-7.18-1.68-11.4-6.45-13.59-13.4q-1.14-3.63-1.26-7.59-.28-10.21-.07-17.97.2-7 .22-10.75 0-.43.53-1.62a2.87 2.78 59.6 0 0 .24-.99c.18-3.69.32-6.95.82-10.75q.58-4.33.3-9.89-.05-.93.55-1.29a.5.48-15.2 0 0 .24-.4zm-136.69-45.54c-4.2 6.55-12.3 9.07-19.09 5.05q-6.95-4.11-7.06-13.76a3.4 3.29-37 0 1 .16-1.02q.97-3.01 1.97-5.28.05-.11.17-.3.12-.19.2-.28 1.65-1.85 3.98-3.99a3.4 3.29-77.6 0 1 .86-.57q8.82-3.91 15.45.69c6.48 4.51 7.56 12.92 3.36 19.46zm103.42 23.93c.96 1.94 1.85 3.2 2.4 5.02q1.61 5.3.57 11.76-.59 3.72-3.62 5.99a2.86 2.82-70.6 0 1-.92.45q-2.28.65-2.99.97c-10.43 4.69-11.2-14.22-22.06-10.89-4.84 1.48-11.62 8.32-14.37 12.76q-8.46 13.63-7.81 30.33a4.47 4.16-55.5 0 0 .13.88q2.56 9.43 13 10.85 5.43.74 20.67-.38 13.22-.97 18.87-.7 4.2.2 7.53 2.7 1.57 1.17 1.77 3.29.58 6.37-3.43 9.75-4.93 4.15-12.5 8.64-17.58 10.44-37.6 8.76c-20.64-1.73-37.05-15.48-41.02-36.12q-.46-2.43-.24-15.26.03-1.94.06-4.14.05-3.34 1.28-7.34.52-1.68 1.01-3.75.82-3.47 3.86-10.53 1.85-4.3 5.58-9.69 3-4.32 7.11-8.89 3.82-4.25 10.74-9.24c8.63-6.21 20.9-11.2 31.43-9.22q10.71 2.01 18.15 10.61 1.69 1.96 2.4 3.39zm445.28 55.91a.14.13 51.7 0 0-.03.26c8.43 3.32 18.43 3.62 26.38 5.33 3.23.69 6.64 2.2 8.75 4.57q5.55 6.26.02 13.21-6.52 8.2-17.23 9.5-11.21 1.36-23.01-2.27-14.92-4.59-22.95-18.03-3.41-5.72-4.76-11.77c-.3-1.34-1.18-3.25-1.15-4.91q.15-7.57.16-14.99.01-1.71.75-3.1a1.94 1.88 60.4 0 0 .24-.93q.02-2.86.29-3.89.48-1.89 3.99-11.81 2-5.65 7.05-12.13 8.01-10.27 19.97-13.26 10.94-2.75 23.98 1.64 13.67 4.6 23.2 16.64 4.11 5.19 5.17 13.39.99 7.68-2.62 13.94c-6.14 10.61-17.66 13.8-29.39 15.7q-13.75 2.22-18.81 2.91zm-1.08-28.63l26.75-2.93a.89.89 0 0 0 .6-1.44c-5.53-6.92-17.18-11.48-24.22-3.48-1.62 1.83-2.81 4.97-3.57 7.3a.42.42 0 0 0 .44.55zM70.98 376.91a.26.26 0 0 0-.31.26q.07 14.39 0 33.34c-.02 7.94-.36 16.7-5.3 22.72q-3.47 4.22-8.87 5.76c-9.54 2.72-18.42-2.31-22.28-11.36q-1.24-2.9-1.04-8.83c.63-18.83-.29-43.1.18-65.12q.08-3.78.39-6.36.6-5.08.52-6.36-.16-2.69.71-5.2 0-.01.81-5.23.49-3.13.94-4.88 2.62-10.24 4.84-24.29 1.27-8.12 2.71-15.12.43-2.13 1.05-3.67a1.29 1.19-16.2 0 1 .24-.4l3-3.22a2.59 2.45 10.1 0 1 .99-.65c4.78-1.72 9.49 1.12 12.46 4.75a1.08 1.07-31 0 0 1.26.31c8.7-3.81 18.11-8 27.22-9.17 13.76-1.77 25.6 2.26 34.35 13.23q4.15 5.19 7.81 13.25.45.99.34 1.32-.17.52.23.84.28.22.5.81 3.55 9.49 4.36 19.35.09 1.08-.08 10.71-.12 6.59-1.32 10.58c-6.35 21.16-27.54 34.2-48.89 34.68-5.74.13-11.42-.92-16.82-2.05zm31.21-42.86q.09-.06.26-.16a1.66 1.57-88.4 0 0 .63-.63q1.61-2.87 1.78-3.4 1.97-6.16 1.02-12.85-1-6.95-1.85-9.04c-2.02-4.97-6.35-6.04-11.43-4.61-11.6 3.26-17.59 12.58-22.49 23.27q-1.37 2.98-1.44 5.64c-.11 4 3.09 5.06 6.37 5.64 8.28 1.46 20.5 2.87 26.71-3.49a3.67 2.92-1.6 0 1 .44-.37zm239.37-27.57c.81-1.98.43-4.18.97-6.16q.55-2.04.98-4.55 1.77-10.47 1.81-10.77c.39-2.93.98-5.1 3.48-7.14q6.48-5.3 15.06-1.7c5.3 2.23 6.08 8.68 6.04 14.1q-.17 27.01-.32 44.08a3.7 3.64-38.8 0 1-.1.85q-.56 2.35-.53 3.35c.25 8.94-.48 18.43-5.44 25.7q-6.16 9.02-16.8 6.19-4.84-1.3-8.39-6.43-2.35-3.39-2.44-10.41-.11-9.53.97-15.99 1.24-7.44 1.37-9.79.07-1.2 1.77-9.84a6.22 6.04 50.5 0 0 .12-1.48q-.13-3.27 1.04-6.87a4.24 4.02-37.1 0 0 .2-1.2l.02-.98a2.83 2.74 57.2 0 1 .19-.96z"/><ellipse cx="0" cy="0" transform="matrix(.398749 -.91706 .91706 .398749 700.13 334.66)" rx="21.35" ry="19.62"/><path d="M783.75 376.87c8.9.38 19.97 1.35 30.5 1.28.83-.01 1.63.48 2.39.47 5.2-.12 8.94.3 13.81.06 7.93-.39 19.53-.36 29.39-.99q9.98-.63 28.66-1.11c2.85-.08 6.45-.73 9.68-.73q9.48.01 23.57.07 2.94.01 5.67-.86a5.52 5.51 33.8 0 1 1.27-.25q15.41-1.15 29.8-3.99a3.82 3.61 28.2 0 0 .66-.18c5.18-1.9 7.3-.36 11.29.35a.15.13 3.2 0 1 .12.12l.03.27a.03.03 0 0 0 .03.03c1.79-.1 4.46-.36 5.22 1.46q.48 1.16-.5 2.16-2.73 2.77-7.54 5.24-3.69 1.9-8.79 2.45-11.84 1.29-15.01 1.38-7.04.21-7.68.28-5.77.68-7.66.54c-4.08-.3-8.73.63-13.89.67q-8.22.06-11.75.32-8.85.63-23.52 1.05-5.08.14-8.64.46-3.77.33-8.65.43-12.46.26-34.96 1.09-14.6.53-46.95-.51c-4.15-.13-8.49.47-12.69.13q-10.19-.84-16.36-1.15-1.21-.06-1.8-.27a1.61.25 23.3 0 0-.96-.25q-21.01.05-46.49-.59-5.05-.12-35.43.38-3.61.06-4.94-.9-2.11-1.52-2.46-4.43-.54-4.45-.81-17.74c-.08-3.6.6-6.76-.12-10.41a1.02.95 43 0 1-.01-.14l-.11-13.8a.61.61 0 0 0-.7-.6c-3.57.48-8.3.87-12.53.56q-2.68-.19-4.48-.68-2.67-.73-9.38-2.7a.95.94 84.9 0 0-1.11 1.33c.91 1.82 1.73 3.25 2.19 5.44q.78 3.7 1.52 7.3a14.32 14.2 40.1 0 1 .29 3.23c-.11 4.09.06 8.14-.26 12.23-1.25 15.96-.7 32.4-.9 47.38q-.02 1.39-.25 2.63a.74.74 0 0 0 .84.87q2.5-.36 4.13-.19c5.03.53 10.93.24 14.77.09q13.99-.54 23.25-.62c11.89-.1 26.61-1.61 37.94-1.63q33.93-.07 53.31-.15c8.62-.04 17.64 1.03 26.01 1.31q30.25.99 31.24 1.02 4.76.12 15.87.56 33.4 1.34 66.65-1.6c4.55-.41 8.64-1.21 12.67-1.29q6.05-.12 11.04-.71 4.97-.58 11.02-.89 10.23-.51 17-1.41c16.53-2.18 26.4-3.7 40.14-1.98a1.05 1.04-4.8 0 0 1.13-1.33q-.51-1.69-.45-2.68.52-10.22.6-20.43a9.38 9.14-52 0 0-.22-2.01c-.56-2.54-1.17-4.35-1.45-7.09q-1.65-16.54-2.3-27.81-.16-2.7-.06-3.33.35-2.13.28-2.78a.74.74 0 0 0-.57-.65q-9.87-2.18-21.01-1.32a1.45 1.44 85 0 0-1.33 1.59l1.1 10.9a1.53 1.32-62.6 0 0 .09.38c1.89 5.31 3.03 11.5-1.83 15.01a1.59 1.57-55.3 0 1-1.33.25q-6.14-1.6-8.51-6.63a1.45 1.41-59.1 0 1-.15-.64l-.15-6.52a2.72 1.97 77.2 0 0-.04-.38q-1.72-9.34-1.32-17.9.15-3.2 2.45-4.92a3.31 3.24 15.4 0 1 .83-.46q2.64-1.04 9.62-1.65c9.7-.85 17.3-.48 26.19-.33q5.98.1 7.95 5.3a5.21 4.48 33.6 0 1 .24.85q.62 3.17-.57 11.3-1.1 7.52-.14 16.32c1.04 9.4 1.01 15.96 2.04 24.16a6.1 5.93 47.9 0 1-.07 1.92q-.99 5.07-.41 10.58c.59 5.61 5.38 10.27-1.61 14.61a1.27 1.23-54.5 0 1-.94.17l-3.59-.74a2.19 2.14-52.4 0 0-1.42.2q-2.53 1.33-3.3 1.93c-4.9 3.84-10.21 6.44-16.64 6.84q-2.98.19-6.93.96a10.01 9.54 38.6 0 1-2.07.18q-4.51-.1-12.94.93-6.04.73-29.76 1.79c-9.15.4-17.21 1.62-25.87 1.42-3.47-.08-6.75 1-10.14.69q-1.54-.13-17.98.3-22.92.61-69.44.42-4.1-.02-20.73-.69-14.04-.56-20.75-.65c-3.56-.05-7.57-1.07-10.37-1.23q-24.5-1.38-42.27-.93-41.79 1.05-58 1.22-18.39.19-25.25-.31c-7.98-.58-7.43-11.38-5.79-16.96a8.24 7.83-37.6 0 0 .33-2.13q.16-8.07.22-11.72.17-8.86-1.49-37.48c-.23-3.87-1.54-8.12-1.23-11.52a4.02 3.93-34 0 1 .19-.92q.99-3.1 3.45-10.61.48-1.48 1.48-2.12a.83.83 0 0 1 1.23.45q.7 2.24 1.88 1.34 4.07-3.09 9.3-5.53c8.52-3.98 17.86-3.27 27.56-2.87a2.48 2.44 62.3 0 1 1.22.39q2.74 1.76 2.76 4.52.06 6.35.4 19.65c.1 4.34-.23 9.24.09 13.79.29 4.06-.04 6.92 0 10.73a.87.86-87.8 0 0 .78.85q4.57.41 9.4.29 34.09-.8 71.38-.6c9.41.04 17.07.82 26.37.74q1.77-.01 4.38.86a2.83 2.77 54.4 0 0 .84.15z"/></svg>