<?xml version="1.0" encoding="UTF-8" standalone="no"?>
<!DOCTYPE svg PUBLIC "-//W3C//DTD SVG 1.1//EN" "http://www.w3.org/Graphics/SVG/1.1/DTD/svg11.dtd">
<svg xmlns="http://www.w3.org/2000/svg" version="1.1" viewBox="0.00 0.00 900.00 460.00">
<g fill="currentColor">
<path d="
  M 757.70 200.87
  Q 755.12 202.47 753.64 204.14
  Q 740.23 219.23 725.37 234.47
  A 11.50 11.35 -6.8 0 0 723.95 236.25
  C 721.51 240.06 708.54 260.86 702.73 251.62
  Q 701.56 249.75 701.01 244.78
  C 699.56 231.79 700.09 220.34 699.96 206.75
  Q 699.64 174.22 700.53 140.00
  C 700.70 133.62 702.22 126.94 702.43 120.30
  C 703.46 87.31 702.81 52.14 702.95 39.91
  A 1.27 1.27 0.0 0 0 701.52 38.64
  Q 691.25 39.95 681.50 39.72
  Q 674.67 39.56 668.00 38.13
  A 1.50 1.35 64.0 0 1 667.58 37.96
  L 663.10 35.27
  A 0.45 0.45 0.0 0 1 663.14 34.48
  Q 666.82 32.74 669.04 30.81
  C 672.44 27.86 676.67 26.80 680.29 26.80
  Q 699.44 26.77 711.55 26.51
  A 1.92 1.91 -17.3 0 1 713.18 27.36
  Q 715.84 31.34 715.52 36.03
  Q 715.11 42.06 715.08 46.74
  C 715.04 51.67 714.40 56.18 714.37 60.75
  Q 714.13 102.26 712.68 141.16
  Q 712.28 151.69 712.44 159.33
  Q 712.73 173.11 712.29 177.50
  Q 709.37 206.59 710.73 235.55
  A 0.73 0.73 0.0 0 0 712.05 235.95
  Q 715.37 231.53 716.55 229.81
  Q 717.73 228.07 719.03 227.30
  C 720.42 226.47 720.89 224.76 721.97 223.55
  C 727.78 217.10 734.29 210.80 739.28 205.42
  Q 745.77 198.42 752.09 191.59
  C 754.97 188.49 758.50 185.97 762.35 189.77
  Q 768.81 196.16 773.25 200.94
  Q 775.40 203.25 776.95 204.49
  C 780.21 207.09 782.34 208.47 783.72 212.04
  Q 785.63 217.02 786.93 220.53
  A 0.90 0.90 0.0 0 1 785.93 221.73
  L 783.57 221.30
  A 0.89 0.89 0.0 0 0 782.53 222.16
  Q 782.42 228.78 779.70 235.06
  Q 778.38 238.09 774.31 242.10
  Q 772.12 244.26 766.70 250.45
  Q 748.79 270.90 731.47 288.10
  A 1.13 1.12 58.2 0 0 731.20 289.28
  Q 738.52 310.19 737.92 332.26
  Q 737.76 338.31 736.95 340.68
  Q 733.58 350.55 723.05 351.48
  Q 713.94 352.29 708.85 344.44
  Q 706.62 341.01 704.68 332.63
  Q 700.82 315.99 700.55 312.19
  Q 700.43 310.43 700.05 303.64
  A 0.99 0.99 0.0 0 0 698.30 303.06
  Q 693.20 309.24 690.27 316.38
  C 687.93 322.07 687.47 330.18 687.23 335.75
  Q 687.01 340.93 685.96 343.48
  C 682.35 352.19 673.63 355.82 664.98 352.78
  C 659.41 350.82 655.93 344.73 654.81 339.08
  A 4.85 4.80 39.9 0 1 654.71 338.01
  Q 654.72 336.97 654.71 326.87
  C 654.71 324.84 655.46 323.58 655.58 321.77
  Q 656.23 312.12 655.20 304.53
  C 654.68 300.75 654.97 297.47 654.70 294.01
  A 1.73 1.73 0.0 0 0 651.76 292.92
  Q 644.21 300.43 640.57 310.08
  Q 633.63 328.50 631.48 335.27
  Q 628.44 344.85 625.77 347.60
  Q 619.76 353.79 610.50 352.75
  C 602.10 351.80 596.95 343.90 595.67 335.54
  Q 595.12 331.94 596.07 324.53
  Q 600.25 291.87 602.25 277.13
  Q 603.14 270.57 608.62 267.57
  A 0.43 0.43 0.0 0 0 608.72 266.90
  C 602.98 261.13 597.12 256.28 591.72 249.97
  Q 587.77 245.35 584.24 241.51
  C 580.34 237.27 576.85 234.34 572.98 230.78
  C 569.01 227.13 567.64 220.71 572.51 217.03
  Q 574.43 215.58 577.40 211.24
  Q 579.55 208.10 581.33 206.98
  Q 585.19 204.56 589.85 203.90
  A 1.10 1.10 0.0 0 1 591.10 204.96
  C 591.30 212.94 587.47 218.13 582.09 223.43
  A 1.27 1.26 47.8 0 0 582.01 225.15
  C 597.90 243.94 617.93 262.19 634.09 276.27
  A 0.86 0.86 0.0 0 0 635.14 276.34
  C 640.11 273.02 648.81 267.55 654.51 267.32
  Q 661.33 267.04 666.86 271.65
  Q 672.54 276.39 677.24 281.99
  A 0.53 0.53 0.0 0 0 678.09 281.93
  Q 686.72 268.27 702.98 267.08
  C 711.22 266.48 720.13 272.31 724.94 278.57
  A 0.49 0.49 0.0 0 0 725.71 278.58
  C 729.53 273.81 732.54 269.45 734.98 267.73
  A 3.49 3.08 -84.2 0 0 735.53 267.22
  C 740.17 261.68 742.82 258.11 747.75 252.75
  Q 754.66 245.26 760.00 238.76
  C 760.46 238.21 760.86 237.22 761.41 236.78
  Q 763.44 235.16 764.38 232.93
  A 2.87 2.86 84.6 0 1 765.40 231.69
  Q 766.55 230.90 769.38 228.15
  C 772.50 225.12 776.61 223.00 780.59 221.81
  A 0.51 0.51 0.0 0 0 780.64 220.85
  Q 773.83 218.07 769.65 213.56
  C 765.04 208.59 761.82 205.83 758.56 201.05
  A 0.64 0.63 56.4 0 0 757.70 200.87
  Z"
/>
<path d="
  M 648.91 237.60
  Q 649.38 234.10 649.48 230.00
  Q 650.57 184.48 651.67 174.28
  Q 652.76 164.15 652.64 159.03
  Q 651.88 127.80 651.64 124.90
  Q 651.64 124.89 650.77 108.11
  C 650.28 98.45 651.22 87.13 650.73 79.30
  Q 650.18 70.45 649.27 56.63
  A 4.47 4.43 -55.1 0 0 649.10 55.65
  L 647.68 50.73
  A 1.92 1.90 -40.3 0 1 647.80 49.37
  L 651.60 41.69
  A 1.69 1.69 0.0 0 1 654.47 41.43
  L 659.03 47.55
  A 2.61 2.59 22.3 0 1 659.52 48.71
  Q 660.85 57.19 660.79 59.00
  C 660.20 76.57 659.28 97.08 661.13 116.06
  Q 662.72 132.44 662.82 144.24
  Q 663.33 202.01 660.12 252.69
  C 659.85 256.98 654.28 256.16 652.00 254.78
  Q 646.82 251.62 639.61 245.26
  Q 623.96 231.46 616.82 225.00
  C 612.12 220.75 607.84 217.82 603.68 214.37
  C 599.47 210.87 593.34 203.27 593.81 197.31
  A 0.63 0.63 0.0 0 1 594.55 196.74
  L 603.48 198.37
  A 1.75 1.62 -23.3 0 1 604.02 198.56
  Q 608.07 200.79 609.35 201.90
  Q 629.79 219.68 648.31 237.81
  A 0.36 0.35 -64.2 0 0 648.91 237.60
  Z"
/>
<path d="
  M 207.96 296.02
  Q 194.67 307.22 191.98 324.20
  Q 190.58 333.02 188.25 343.51
  C 186.29 352.37 182.76 361.41 172.77 362.69
  Q 165.20 363.65 158.46 360.49
  C 154.92 358.83 151.72 352.98 150.37 349.88
  C 144.74 336.98 142.40 325.03 140.15 310.04
  Q 137.93 295.32 137.94 280.25
  Q 137.94 252.09 138.62 243.88
  Q 140.70 218.76 142.70 209.19
  Q 144.52 200.47 152.54 197.50
  C 162.40 193.84 170.52 201.39 172.40 210.63
  Q 182.32 259.48 184.67 270.89
  A 1.47 1.47 0.0 0 0 186.82 271.88
  Q 194.33 267.69 202.11 265.88
  C 223.83 260.84 236.74 277.48 242.71 295.79
  Q 246.63 307.86 248.54 318.49
  Q 249.13 321.80 249.21 328.33
  Q 249.27 333.76 247.70 338.00
  Q 244.37 346.98 238.60 352.81
  Q 235.89 355.56 231.50 356.17
  C 224.54 357.15 220.55 352.62 218.76 346.48
  Q 216.78 339.69 215.94 333.01
  Q 214.04 317.78 212.93 308.32
  Q 212.25 302.48 208.53 296.12
  A 0.38 0.37 -34.6 0 0 207.96 296.02
  Z"
/>
<path d="
  M 283.93 211.69
  C 292.25 214.42 295.56 221.82 296.37 229.90
  Q 296.81 234.30 297.77 242.33
  Q 298.67 249.89 298.95 254.73
  Q 299.40 262.44 301.48 288.50
  Q 302.19 297.35 302.37 317.04
  C 302.41 321.45 302.95 326.48 302.33 331.73
  C 301.43 339.28 300.64 346.50 298.80 353.54
  C 296.99 360.46 291.71 365.38 284.59 366.60
  Q 282.50 366.96 280.35 366.46
  Q 269.22 363.85 266.55 352.99
  Q 265.00 346.68 264.21 343.97
  A 13.40 13.08 35.2 0 1 263.74 341.43
  Q 259.66 293.24 264.80 245.00
  Q 266.13 232.48 266.35 230.27
  Q 267.34 220.39 274.68 214.46
  Q 277.22 212.40 282.52 211.58
  A 3.12 3.08 -40.2 0 1 283.93 211.69
  Z"
/>
<path d="
  M 404.30 296.25
  A 0.33 0.32 69.7 0 0 404.83 296.50
  Q 422.15 282.57 440.95 272.48
  C 448.15 268.61 456.24 269.64 460.50 277.14
  A 2.54 2.48 30.7 0 1 460.83 278.38
  Q 460.87 284.26 460.31 285.42
  C 457.78 290.69 453.00 294.39 447.71 298.70
  Q 436.48 307.87 429.15 314.02
  A 0.63 0.62 -50.6 0 0 429.25 315.05
  Q 446.96 324.62 463.09 334.66
  Q 467.72 337.54 472.71 342.51
  Q 475.32 345.10 476.94 350.34
  C 479.11 357.37 475.05 365.32 468.31 368.05
  C 457.70 372.35 448.83 366.60 441.06 359.68
  Q 426.37 346.62 411.85 332.26
  A 0.58 0.57 -55.7 0 0 410.92 332.44
  Q 406.77 341.91 402.90 352.39
  Q 399.38 361.93 390.28 364.76
  C 384.81 366.47 377.93 364.76 374.15 361.31
  Q 368.18 355.87 367.12 347.69
  C 366.33 341.58 365.07 336.28 364.99 331.06
  Q 364.57 301.91 367.75 271.77
  Q 368.56 264.07 370.89 249.24
  Q 372.33 240.07 374.25 226.75
  C 374.88 222.38 376.16 214.01 381.23 212.45
  Q 386.22 210.91 390.25 212.54
  C 396.87 215.23 399.44 225.79 399.83 232.00
  Q 400.38 240.88 403.59 284.22
  Q 404.17 292.12 404.30 296.25
  Z"
/>
<ellipse cx="0.00" cy="0.00" transform="translate(333.00,238.07) rotate(-58.6)" rx="14.45" ry="13.96"/>
<path d="
  M 779.38 325.03
  Q 784.36 327.06 788.10 327.64
  Q 797.44 329.06 801.26 329.72
  C 807.17 330.73 814.11 333.12 815.77 339.06
  Q 817.05 343.67 813.70 347.77
  Q 807.05 355.92 796.44 357.40
  C 790.05 358.30 781.51 357.57 775.18 355.62
  Q 752.64 348.69 746.05 325.90
  Q 744.81 321.59 744.90 317.40
  C 744.99 313.58 744.44 309.74 744.94 305.87
  Q 747.33 287.52 757.53 274.03
  C 766.59 262.06 780.97 257.82 795.89 261.40
  Q 812.57 265.40 823.56 278.73
  C 828.48 284.71 830.64 294.03 828.31 301.87
  C 824.46 314.80 811.03 319.24 799.26 321.54
  Q 788.99 323.55 779.43 324.67
  A 0.19 0.19 0.0 0 0 779.38 325.03
  Z
  M 777.88 296.48
  L 804.29 293.47
  A 0.78 0.78 0.0 0 0 804.80 292.20
  C 799.11 285.23 787.83 280.93 780.89 288.60
  Q 778.84 290.86 777.28 295.76
  A 0.56 0.56 0.0 0 0 777.88 296.48
  Z"
/>
<path d="
  M 63.65 372.81
  A 0.40 0.40 0.0 0 0 63.17 373.20
  Q 63.31 395.72 63.09 410.99
  C 62.95 421.08 59.62 431.35 48.80 434.22
  C 38.93 436.83 29.75 431.42 26.71 421.97
  Q 25.96 419.65 26.02 412.48
  Q 26.24 386.74 25.99 361.00
  Q 25.86 347.02 27.25 334.95
  Q 27.92 329.13 30.18 319.07
  C 33.06 306.28 34.93 293.09 37.07 282.32
  Q 37.74 278.95 40.36 276.37
  C 44.53 272.27 51.15 275.67 54.15 279.39
  A 1.74 1.73 57.2 0 0 56.28 279.85
  Q 64.03 275.92 71.99 273.38
  Q 80.20 270.77 86.06 270.50
  C 96.95 270.02 106.31 272.98 114.23 281.04
  C 127.80 294.87 132.43 318.36 129.34 337.14
  C 125.61 359.78 100.92 375.39 79.00 374.78
  Q 72.29 374.59 63.65 372.81
  Z
  M 95.67 328.90
  C 99.56 321.76 98.83 312.54 96.58 305.25
  Q 94.62 298.91 87.86 299.39
  C 80.25 299.93 72.94 305.69 68.76 311.77
  C 65.99 315.79 55.04 332.16 66.21 333.85
  C 76.40 335.38 86.78 337.31 94.91 329.88
  A 3.93 3.86 -7.7 0 0 95.67 328.90
  Z"
/>
<path d="
  M 334.10 366.72
  C 324.48 367.83 317.50 363.23 315.85 353.61
  C 315.03 348.81 315.68 340.06 316.59 333.83
  Q 317.16 329.92 318.59 318.78
  Q 321.13 298.96 325.14 280.17
  C 326.66 273.03 334.68 270.10 341.05 271.87
  C 347.46 273.66 349.30 278.97 349.31 285.00
  Q 349.35 301.81 349.02 329.25
  Q 349.01 330.29 348.31 343.00
  C 347.81 352.02 343.94 363.51 334.70 366.59
  A 2.69 2.52 30.9 0 1 334.10 366.72
  Z"
/>
<ellipse cx="0.00" cy="0.00" transform="translate(566.36,330.82) rotate(-66.1)" rx="21.07" ry="19.43"/>
<path d="
  M 524.51 335.25
  A 0.55 0.55 0.0 0 0 523.89 334.76
  Q 518.23 335.48 512.19 335.35
  C 507.19 335.25 501.63 333.21 497.51 332.00
  A 0.72 0.72 0.0 0 0 496.66 333.00
  C 499.26 338.44 500.70 346.00 500.59 352.21
  C 500.45 361.00 499.63 370.73 499.58 378.94
  Q 499.50 389.62 499.35 411.17
  A 0.60 0.59 -3.4 0 0 500.02 411.76
  C 505.38 411.16 510.33 412.22 516.05 411.90
  C 528.90 411.17 544.56 411.31 556.57 410.48
  C 562.10 410.10 573.31 409.46 581.48 409.46
  Q 606.07 409.45 615.99 409.30
  Q 631.18 409.06 650.49 410.02
  Q 679.88 411.49 707.50 412.28
  Q 737.63 413.14 767.82 410.67
  Q 787.36 409.07 790.58 408.88
  C 801.50 408.24 819.59 406.78 834.07 405.07
  Q 845.45 403.72 848.76 403.76
  Q 855.11 403.83 862.92 404.31
  A 0.75 0.74 0.4 0 0 863.71 403.54
  C 863.67 402.65 863.22 401.41 863.25 400.69
  Q 863.71 389.13 863.86 381.00
  C 863.92 377.71 862.53 374.32 862.18 370.94
  Q 861.52 364.40 860.24 349.25
  Q 859.71 343.02 860.06 337.27
  A 0.38 0.37 7.6 0 0 859.75 336.87
  Q 848.88 334.79 838.64 335.53
  A 1.29 1.28 87.0 0 0 837.45 336.86
  Q 837.75 345.20 839.82 353.25
  Q 841.27 358.84 836.80 363.19
  A 1.09 1.08 -60.2 0 1 835.79 363.47
  Q 829.55 361.88 826.93 356.71
  A 0.96 0.92 32.6 0 1 826.83 356.29
  L 826.64 349.50
  A 7.86 7.59 -51.1 0 0 826.54 348.39
  Q 824.96 338.51 825.41 331.16
  C 825.70 326.30 830.59 325.26 835.28 324.78
  Q 848.42 323.44 863.68 324.22
  Q 867.55 324.41 869.53 326.03
  Q 872.83 328.72 872.44 334.04
  C 872.01 340.00 870.86 347.13 871.35 354.01
  Q 872.69 373.16 873.55 381.64
  A 10.05 9.95 -43.1 0 1 873.45 384.31
  Q 872.06 392.36 874.28 399.07
  C 875.74 403.51 875.43 406.18 871.58 408.57
  A 1.25 1.24 -55.2 0 1 870.70 408.73
  L 866.53 407.97
  A 1.22 1.21 -56.2 0 0 865.64 408.15
  Q 859.29 412.32 855.99 414.22
  C 852.09 416.47 846.43 416.88 842.12 417.47
  Q 837.97 418.04 834.36 418.10
  C 828.51 418.21 822.62 419.37 816.45 419.66
  Q 795.76 420.62 775.75 422.01
  C 771.28 422.32 766.61 421.85 762.80 422.77
  C 760.05 423.44 756.86 422.69 753.40 422.82
  Q 693.87 424.98 631.25 422.24
  C 627.10 422.06 622.69 421.11 619.24 420.95
  Q 593.97 419.82 589.24 419.97
  Q 554.95 421.07 513.50 421.43
  Q 504.10 421.51 495.51 421.00
  C 488.91 420.61 488.30 412.50 489.27 407.49
  C 489.72 405.22 490.33 402.45 490.39 399.13
  Q 490.77 378.00 488.99 353.68
  C 488.72 349.98 487.83 346.27 487.77 342.87
  A 5.65 5.57 -38.0 0 1 487.99 341.18
  Q 490.34 333.14 492.14 328.91
  A 1.14 0.98 -41.5 0 1 494.19 328.88
  Q 494.34 329.87 495.22 330.10
  A 1.11 1.10 34.1 0 0 496.12 329.93
  Q 505.05 323.48 512.74 322.26
  Q 519.67 321.15 532.14 321.71
  A 2.70 2.68 59.8 0 1 533.22 322.00
  Q 536.47 323.72 536.55 327.73
  Q 536.97 348.49 537.06 370.64
  A 0.54 0.53 3.0 0 0 537.54 371.17
  Q 540.82 371.55 544.75 371.52
  Q 567.60 371.29 607.75 370.98
  C 620.26 370.88 632.80 371.92 643.75 371.76
  C 645.35 371.74 647.27 372.21 648.65 372.54
  A 7.31 6.80 51.1 0 0 650.04 372.74
  Q 657.50 373.04 669.52 373.91
  C 672.94 374.16 676.19 373.77 679.44 374.14
  C 683.37 374.58 688.68 374.60 693.75 374.47
  Q 741.25 373.22 755.02 372.21
  C 766.62 371.36 778.26 371.72 788.92 371.74
  A 3.03 3.00 38.1 0 0 789.61 371.66
  L 792.88 370.85
  A 10.95 10.08 33.3 0 1 794.47 370.59
  Q 811.69 369.09 826.68 365.89
  A 5.05 4.92 41.4 0 1 828.28 365.81
  Q 831.93 366.18 834.73 367.02
  C 836.25 367.48 838.21 366.84 839.66 368.11
  A 2.18 1.88 -45.9 0 1 839.49 371.10
  Q 833.47 376.90 824.71 378.16
  Q 814.30 379.66 807.99 379.98
  Q 801.15 380.32 800.65 380.39
  Q 797.28 380.82 793.33 380.75
  C 787.79 380.63 782.65 381.38 777.06 381.54
  Q 757.15 382.12 732.50 383.37
  C 720.88 383.95 709.14 384.04 695.17 384.61
  C 674.80 385.44 656.79 384.28 636.76 384.37
  Q 631.52 384.39 622.15 383.57
  Q 612.93 382.75 607.55 382.69
  Q 584.65 382.42 577.69 382.21
  C 563.50 381.78 554.49 382.18 536.94 382.45
  C 531.19 382.53 526.06 382.96 525.61 376.63
  Q 524.93 367.03 524.86 355.26
  Q 524.77 337.70 524.51 335.25
  Z"
/>
</g>
</svg>
